<?xml version="1.0" encoding="utf-8"?>
<!-- Generator: Adobe Illustrator 21.0.0, SVG Export Plug-In . SVG Version: 6.00 Build 0)  -->
<svg version="1.1" id="Calque_1" xmlns="http://www.w3.org/2000/svg" xmlns:xlink="http://www.w3.org/1999/xlink" x="0px" y="0px"
	 viewBox="0 0 1024 1024" style="enable-background:new 0 0 1024 1024;" xml:space="preserve">
<style type="text/css">
	.st0{fill:#181818;}
	.st1{fill:#FFFFFF;}
	.st2{fill:none;stroke:#000000;stroke-miterlimit:10;}
	.st3{stroke:#000000;stroke-width:3;stroke-miterlimit:10;}
	.st4{fill:none;stroke:#000000;stroke-width:10;stroke-miterlimit:10;}
	.st5{stroke:#000000;stroke-width:10;stroke-miterlimit:10;}
	.st6{fill:#FFFFFF;stroke:#FFFDFD;stroke-miterlimit:10;}
	.st7{fill:none;stroke:#FFFFFF;stroke-width:6;stroke-miterlimit:10;}
	.st8{stroke:#000000;stroke-width:6;stroke-miterlimit:10;}
</style>
<circle class="st0" cx="512" cy="500.3" r="459.6"/>
<ellipse class="st1" cx="515" cy="500.5" rx="402.1" ry="416.7"/>
<g>
	<path d="M618.3,624c1.6-1.2,3.4-2.3,5.2-3.3c1.8-1.1,3.6-2.1,5.5-3.1c3.7-2,7.3-4,10.9-5.9l20.8-11c6.7-3.6,13.1-7.2,19.3-10.8
		c6.2-3.6,12.2-7.3,17.7-11.6c5.5-4.2,10.5-8.9,15.1-14.1c1.1-1.3,2.2-2.6,3.3-3.9l3.2-4.1c1-1.4,2-2.8,3-4.3c0.5-0.7,1-1.4,1.4-2.1
		c0.5-0.7,0.9-1.4,1.4-2.2c3.6-6,6.8-12.7,9.4-19.6c2.7-6.9,4.8-14.1,6.3-21.2c0.8-3.6,1.3-7.1,1.7-10.7c0.5-3.5,0.7-7,0.8-10.5
		c0.2-6.9-0.4-13.5-1.8-19.6c-0.7-3.1-1.5-6-2.5-8.9l-0.8-2.1c-0.2-0.7-0.6-1.4-0.9-2.1l-0.9-2.1c-0.3-0.7-0.7-1.3-1.1-2
		c-2.9-5.3-6.7-10.5-11.6-15.4c-4.8-4.9-10.6-9.5-17.2-13.8c-6.5-4.3-13.8-8.2-21.5-11.7c-7.7-3.5-15.8-6.7-24.2-9.6
		c-8.4-2.9-17.1-5.4-26-7.9c-17.7-4.8-36.1-8.7-54.8-12.2c-18.7-3.5-37.6-6.4-56.7-9.4c-19.1-2.9-38.4-5.8-57.7-9
		c-19.3-3.2-38.8-6.8-58.2-11.7c-9.7-2.4-19.4-5.3-29-8.7c-9.6-3.5-19.1-7.5-28.2-13.1l-3.4-2.1l-3.3-2.3l-1.6-1.2l-1.6-1.3
		c-1.1-0.9-2.1-1.7-3.2-2.6c-4.1-3.7-7.9-7.8-11.1-12.4c-3.1-4.7-5.6-9.9-7.2-15.3c-1.5-5.1-2.5-10.2-3.1-15.5
		c-0.6-5.2-0.7-10.5-0.1-15.9c0.5-5.3,1.7-10.7,3.8-15.9c2.1-5.1,5.3-10,9.2-14c3.9-4,8.6-7.2,13.4-9.6c4.9-2.4,9.9-4.1,15-5.3
		c5.1-1.2,10.2-1.9,15.4-2.2c10.2-0.5,20.4-0.2,30.3,2.2l-2.1,12.6c-4.6-0.3-9.2-0.7-13.8-1c-4.6-0.3-9.2-0.4-13.7-0.1
		c-9.1,0.3-18,1.7-25.9,5c-3.9,1.7-7.4,3.9-10.4,6.7c-2.9,2.8-5.2,6.2-6.7,10c-3,7.7-2.9,16.7-1.1,25.3c0.9,4.3,2.2,8.6,3.9,12.7
		c1.6,3.7,3.7,7.2,6.2,10.3c2.6,3.1,5.7,5.8,9.1,8.3c0.9,0.6,1.8,1.2,2.7,1.7l1.3,0.9l1.4,0.8l2.8,1.6l3,1.4
		c7.9,3.8,16.6,6.5,25.5,8.6c8.9,2.2,18.1,3.7,27.4,5c9.3,1.2,18.7,2.2,28.1,2.9c9.5,0.7,19,1.2,28.5,1.6
		c19.1,0.9,38.4,1.2,57.8,1.7c19.4,0.5,39,1.1,58.7,2.1c19.7,1.1,39.7,2.6,59.9,5.3c20.2,2.8,40.7,6.7,61.5,13.2
		c10.4,3.3,20.9,7.3,31.3,12.3c10.4,5.1,20.7,11.3,30.5,19c9.8,7.7,19,17.1,26.8,27.9c1,1.4,2,2.7,2.9,4.1l2.6,4.2
		c0.9,1.4,1.8,2.8,2.6,4.3l2.4,4.4c3,5.9,5.6,12,7.7,18.2c4.2,12.4,6.6,25.1,7.7,37.5c1.1,12.5,0.7,24.7-0.6,36.7
		c-1.4,12-3.7,23.7-7,35.1c-3.3,11.5-7.6,22.7-13,33.8c-0.7,1.4-1.4,2.8-2.1,4.2c-0.7,1.4-1.5,2.8-2.2,4.1c-1.5,2.7-3.1,5.4-4.7,8
		c-1.7,2.6-3.4,5.2-5.1,7.8c-1.8,2.5-3.6,5.1-5.5,7.6c-7.6,9.9-16.1,19.1-25.4,27.4c-9.3,8.2-19.1,15.7-29.6,21.9
		c-1.3,0.8-2.6,1.5-3.9,2.3c-1.3,0.7-2.7,1.4-4,2.1c-1.3,0.7-2.7,1.4-4,2c-1.4,0.6-2.7,1.2-4.1,1.9l-2,0.9l-2.1,0.8l-4.2,1.7
		c-2.8,1-5.6,2-8.4,2.9c-11.3,3.5-22.8,5.8-34.4,6.6c-5.8,0.4-11.6,0.4-17.5,0.1c-2.9-0.2-5.9-0.5-8.9-0.9c-3-0.4-6-0.9-9.3-1.7
		L618.3,624z"/>
</g>
<g>
	<g>
		<path class="st2" d="M396.8,218.4"/>
	</g>
</g>
<g>
	<g>
		<path class="st2" d="M409.1,221.9"/>
	</g>
</g>
<ellipse transform="matrix(0.1413 -0.99 0.99 0.1413 147.9484 608.7781)" class="st3" cx="424.9" cy="219.1" rx="12" ry="12"/>
<path class="st4" d="M506.6,387.1c90.9-2.1,166.7,59.2,180.3,136.8c10.2,58.4-16.1,119.9-66.3,159.5"/>
<path class="st5" d="M515,387.3c-24.3,32.3-83.9,121.2-67.4,229c2.9,18.6,7.6,35.6,13.5,51c-30.1,52.6-98.3,64.2-138.9,32.6
	c-37.5-29.1-45.9-90.5-11.2-133.8c-6.2-7.3-59.2-71.2-39.9-126C292.2,380.1,397.7,338.3,515,387.3z"/>
<path class="st6" d="M677.9,591.4c-6.1,15.1-13.9,31.7-23.8,49.3c-11.3,20-23.1,37.1-34.2,51.4c-10.1-27.8-20.2-55.6-30.3-83.4
	C619,602.9,648.5,597.1,677.9,591.4z"/>
<g>
	<path class="st1" d="M629.8,688.6c0.3,0.1,0.9,0.2,1.3,0.2l1.6,0.2c1.1,0.1,2.1,0.2,3.2,0.3c2.2,0.2,4.4,0.3,6.6,0.3
		c4.4,0.1,8.8-0.2,13.2-0.7c8.7-1,17.4-3.3,25.2-7.3c7.8-4,14.8-9.8,20.1-17.3c2.6-3.7,4.8-7.8,6.6-12.1c1.7-4.3,3-8.9,4.3-13.6
		c0.5,4.8,0.2,9.8-0.8,14.6c-1,4.8-2.5,9.6-4.7,14.2c-4.2,9.2-11,17.4-19.3,23.7c-8.3,6.3-18,10.7-27.9,13.7
		c-5,1.5-10.1,2.6-15.2,3.4c-2.6,0.4-5.2,0.7-7.8,0.9c-1.3,0.1-2.6,0.2-4,0.3l-2,0.1c-0.7,0-1.3,0-2.2,0L629.8,688.6z"/>
</g>
<line class="st7" x1="366.6" y1="189.9" x2="366.6" y2="245.4"/>
<circle class="st8" cx="589.6" cy="460.8" r="21.5"/>
</svg>
